<svg xmlns="http://www.w3.org/2000/svg" viewBox="0 0 512 512">
  <defs>
    <linearGradient id="g" x1="0" y1="0" x2="1" y2="1">
      <stop offset="0" stop-color="#3b82f6"/>
      <stop offset="1" stop-color="#22c55e"/>
    </linearGradient>
  </defs>
  <rect width="512" height="512" rx="112" fill="#0b1220"/>
  <circle cx="256" cy="256" r="164" fill="url(#g)" opacity="0.18"/>
  <path
    d="M185 308c18 22 43 34 71 34 37 0 66-18 79-49h-54c-7 10-16 15-28 15-19 0-34-14-34-38 0-23 15-38 34-38 12 0 22 5 28 15h54c-13-31-42-49-79-49-28 0-53 12-71 34-12 15-18 33-18 53s6 38 18 53Z"
    fill="#e2e8f0"
  />
</svg>

